# xmcd CD database file
#
# Track frame offsets:
#	150
#	10200
#	22600
#	30841
#	40022
#	50010
#	59023
#	71098
#	81164
#	90474
#	100498
#	111947
#	124199
#	133635
#	145282
#	155663
#	165488
#
# Disc length: 2338 seconds
#
# Revision: 5
# Processed by: cddbd v1.5.2PL0 Copyright (c) Steve Scherf et al.
# Submitted via: CDex 1.40Beta8
#
DISCID=de092011
DTITLE=Johnny Cash - Give My Love To Rose
DYEAR=2000
DGENRE=Country
TTITLE0=Hey Porter
TTITLE1=Give My Love To Rose
TTITLE2=Guess Things Happen That Way
TTITLE3=Luther Played The Boogie
TTITLE4=I Could Never Be Ashamed Of You
TTITLE5=Blue Train
TTITLE6=I Walk The Line
TTITLE7=The Ways Of A Woman In Love
TTITLE8=Down The Street To 301
TTITLE9=Goodbye Little Darlin'
TTITLE10=Thanks A Lot
TTITLE11=Folsom Prison Blues
TTITLE12=Rock Island Line
TTITLE13=You're The Nearest Thing To Heaven
TTITLE14=I Heard That Lonesome Whistle Blow
TTITLE15=Get Rhythm
TTITLE16=There You Go
EXTD=(c)2005 Hallmark UK\nupc 5050457005320 YEAR: 2000 ID3G: 2
EXTT0=
EXTT1=
EXTT2=
EXTT3=
EXTT4=
EXTT5=
EXTT6=
EXTT7=
EXTT8=
EXTT9=
EXTT10=
EXTT11=
EXTT12=
EXTT13=
EXTT14=
EXTT15=
EXTT16=
PLAYORDER=
